<svg xmlns="http://www.w3.org/2000/svg" width="1030.056" height="386.092" viewBox="0 0 1030.056 386.092">
    <defs>
        <style>
            .cls-1{fill:#fff}.cls-2{filter:url(#Path_1994)}.cls-3{filter:url(#Rectangle_2)}.cls-4{filter:url(#Path_1993)}
        </style>
        <filter id="Path_1993" width="1030.056" height="242.092" x="0" y="0" filterUnits="userSpaceOnUse">
            <feOffset/>
            <feGaussianBlur result="blur" stdDeviation="8"/>
            <feFlood flood-color="#fff" flood-opacity=".561"/>
            <feComposite in2="blur" operator="in"/>
            <feComposite in="SourceGraphic"/>
        </filter>
        <filter id="Rectangle_2" width="119" height="68" x=".206" y="224.092" filterUnits="userSpaceOnUse">
            <feOffset/>
            <feGaussianBlur result="blur-2" stdDeviation="8"/>
            <feFlood flood-color="#fff" flood-opacity=".561"/>
            <feComposite in2="blur-2" operator="in"/>
            <feComposite in="SourceGraphic"/>
        </filter>
        <filter id="Path_1994" width="664.968" height="85.688" x="178.675" y="300.404" filterUnits="userSpaceOnUse">
            <feOffset/>
            <feGaussianBlur result="blur-3" stdDeviation="6"/>
            <feFlood flood-color="#fff" flood-opacity=".561"/>
            <feComposite in2="blur-3" operator="in"/>
            <feComposite in="SourceGraphic"/>
        </filter>
    </defs>
    <g id="ENIGMA" transform="translate(-448.794 -263.908)">
        <g id="Group_5" data-name="Group 5">
            <g class="cls-4" transform="translate(448.79 263.91)">
                <path id="Path_1993-2" d="M85.083 0H13.794v-194.092h71.289v22.217H37.476v63.721h47.607v22.217H37.476v63.843h47.607zm118.7-194.092l28.687 97.046 10.254 41.138-1.464-41.138v-97.046h22.583V0H241.5l-28.561-97.046-10.254-41.138 1.465 41.138V0h-22.583v-194.092zM367.285 0v-194.092h23.682V0zm210.376 0h-37.109q-24.9 0-36.011-12.207-10.132-11.108-10.132-33.813v-121.7q0-12.329 7.08-19.409 7.08-6.958 19.409-6.958h30.273q12.451 0 19.409 6.958 7.08 7.08 7.08 19.409v37.354H554.1v-36.255q0-5.249-5.371-5.249h-25.267q-5.371 0-5.371 5.249v120.6q0 13.428 4.883 18.677t17.578 5.249H554.1v-63.842h-16.6v-22.217h40.161zm180.347 0H729.2l-25.88-150.146L699.048 0h-23.071l9.277-194.092h29.175L732.5-97.046 743-22.095h1.221l10.5-74.951 18.066-97.046h29.175L811.23 0h-23.071l-4.272-150.146zM904.3 0l27.344-194.092h36.865L995.85 0h-22.461l-6.958-49.927h-32.715L926.758 0zm58.96-72.021l-3.54-25.024-9.033-74.829h-1.221l-9.155 74.829-3.421 25.024z" class="cls-1" data-name="Path 1993" transform="translate(10.21 218.09)"/>
            </g>
            <g class="cls-3" transform="translate(448.79 263.91)">
                <path id="Rectangle_2-2" d="M0 0h71v20H0z" class="cls-1" data-name="Rectangle 2" transform="translate(24.21 248.09)"/>
            </g>
        </g>
        <g class="cls-2" transform="translate(448.79 263.91)">
            <path id="Path_1994-2" d="M20.781-44h-7.625V0H7.125v-44H-.531v-5.687h21.312zM48.544 0h-6.031v-22h-9.25V0h-6.031v-49.687h6.031v22h9.25v-22h6.031zm30.075 0h-18.25v-49.687h18.25V-44H66.432v16.313h12.187V-22H66.432v16.344h12.187zm43.213-49.687a6.826 6.826 0 0 1 5 1.781 6.782 6.782 0 0 1 1.781 4.969V-6.75a6.716 6.716 0 0 1-1.781 4.969 6.826 6.826 0 0 1-5 1.781h-7.75a6.782 6.782 0 0 1-4.969-1.781A6.65 6.65 0 0 1 107.3-6.75v-36.187a6.714 6.714 0 0 1 1.813-4.969 6.782 6.782 0 0 1 4.969-1.781zM114.738-44a1.2 1.2 0 0 0-1.375 1.344v35.625a1.215 1.215 0 0 0 1.375 1.375h6.469a1.215 1.215 0 0 0 1.375-1.375v-35.625A1.2 1.2 0 0 0 121.207-44zm31.388-5.687l7.344 24.844 2.63 10.531-.375-10.531v-24.844h5.775V0h-5.719l-7.311-24.844-2.625-10.531.375 10.531V0h-5.781v-49.687zM191.639 0h-18.312v-49.687h6.063v44.031h12.25zm7.825 0v-49.687h6.063V0zm23.576-49.687l7.344 24.844 2.625 10.531-.375-10.531v-24.844h5.781V0H232.7l-7.312-24.844-2.625-10.531.375 10.531V0h-5.781v-49.687zM268.49 0h-18.25v-49.687h18.25V-44H256.3v16.313h12.19V-22H256.3v16.344h12.19zm35.463 0a6.826 6.826 0 0 1-5-1.781 6.716 6.716 0 0 1-1.781-4.969v-36.187a6.782 6.782 0 0 1 1.781-4.969 6.826 6.826 0 0 1 5-1.781h7.688a6.826 6.826 0 0 1 5 1.781 6.782 6.782 0 0 1 1.781 4.969v9.563h-6v-9.281A1.2 1.2 0 0 0 311.047-44h-6.469a1.2 1.2 0 0 0-1.375 1.344v35.625a1.215 1.215 0 0 0 1.375 1.375h6.469a1.215 1.215 0 0 0 1.375-1.375v-9.281h6v9.562a6.716 6.716 0 0 1-1.781 4.969 6.826 6.826 0 0 1-5 1.781zm32.325-27.687h3.469q3.25 0 4.5-1.344 1.281-1.312 1.281-4.75v-8.875A1.2 1.2 0 0 0 344.153-44h-7.875zm8.5-22a6.716 6.716 0 0 1 4.969 1.781 6.714 6.714 0 0 1 1.813 4.969v8.437a12.684 12.684 0 0 1-1.312 6.344 7.36 7.36 0 0 1-4.469 3.313 7.36 7.36 0 0 1 4.469 3.313 12.684 12.684 0 0 1 1.313 6.344V0h-6.031v-15.906q0-3.437-1.281-4.75Q343-22 339.747-22h-3.469V0h-6.031v-49.687zm35.857 0l-8.562 31.125V0h-6.031v-18.562l-8.594-31.125h6.375l5.219 21.844 5.25-21.844zM393.116-22V0h-6.031v-49.687h14.531a6.716 6.716 0 0 1 4.969 1.781 6.714 6.714 0 0 1 1.813 4.969v9.156q0 5.813-2.594 8.656Q402.96-22 396.585-22zm0-5.687h3.469q3.25 0 4.5-1.344 1.281-1.312 1.281-4.75v-8.875A1.2 1.2 0 0 0 400.991-44h-7.875zM435.973-44h-7.625V0h-6.031v-44h-7.657v-5.687h21.313zm6.45 44v-49.687h6.063V0zm24.669 0a6.826 6.826 0 0 1-5-1.781 6.716 6.716 0 0 1-1.781-4.969v-36.187a6.782 6.782 0 0 1 1.781-4.969 6.826 6.826 0 0 1 5-1.781h7.688a6.826 6.826 0 0 1 5 1.781 6.782 6.782 0 0 1 1.781 4.969v9.563h-6v-9.281A1.2 1.2 0 0 0 474.186-44h-6.469a1.2 1.2 0 0 0-1.375 1.344v35.625a1.215 1.215 0 0 0 1.375 1.375h6.469a1.215 1.215 0 0 0 1.375-1.375v-9.281h6v9.562a6.716 6.716 0 0 1-1.781 4.969 6.826 6.826 0 0 1-5 1.781zm66.244 0H527.3v-22h-9.25V0h-6.031v-49.687h6.031v22h9.25v-22h6.031zm17.857-49.687v42.656a1.229 1.229 0 0 0 1.407 1.375h6.469a1.215 1.215 0 0 0 1.375-1.375v-42.656h6.031V-6.75a6.65 6.65 0 0 1-1.812 4.969A6.716 6.716 0 0 1 559.693 0h-7.75a6.716 6.716 0 0 1-4.969-1.781 6.65 6.65 0 0 1-1.812-4.969v-42.937zm32.794 0l7.344 24.844 2.625 10.531-.375-10.531v-24.844h5.781V0h-5.719l-7.313-24.844-2.625-10.531.375 10.531V0h-5.78v-49.687zM628.437-44h-7.625V0h-6.031v-44h-7.656v-5.687h21.313z" class="cls-1" data-name="Path 1994" transform="translate(197.21 368.09)"/>
        </g>
    </g>
</svg>
