<svg xmlns="http://www.w3.org/2000/svg" width="61.92" height="42.782" viewBox="0 0 61.92 42.782">
    <defs>
        <style>
            .cls-1{fill:#fff}.cls-2{fill:none;stroke:#fff;stroke-width:2px}
        </style>
    </defs>
    <g id="Group_3" data-name="Group 3" transform="translate(-1644.152 -826.506)">
        <path id="Path_1997" d="M10.728-25.288q-1.368 0-3.384.162t-3.816.414v2.052a50.45 50.45 0 0 1 6.7-.468 13.731 13.731 0 0 1 5.31.738 3.893 3.893 0 0 1 2.124 2.754 29.47 29.47 0 0 1 .522 6.624h-.216a4.755 4.755 0 0 0-2.3-1.332 18.022 18.022 0 0 0-4.968-.5 20.618 20.618 0 0 0-5.148.486 4.018 4.018 0 0 0-2.582 1.94 9.458 9.458 0 0 0-.81 4.446A13.705 13.705 0 0 0 2.844-3a4.2 4.2 0 0 0 2.52 2.354 16.751 16.751 0 0 0 5.616.7 29.434 29.434 0 0 0 4.482-.27 6.026 6.026 0 0 0 2.754-1.1 4.961 4.961 0 0 0 1.62-2.52 15.166 15.166 0 0 0 .54-3.258q.144-1.962.144-5.238 0-3.312-.2-5.436a14.489 14.489 0 0 0-.738-3.6 5 5 0 0 0-2.862-3.1 16.662 16.662 0 0 0-5.992-.82zm.54 12.6a17.733 17.733 0 0 1 4.5.414A2.81 2.81 0 0 1 17.64-11a6.017 6.017 0 0 1 .432 2.6 11.061 11.061 0 0 1-.572 4.154 2.974 2.974 0 0 1-1.962 1.728 16.112 16.112 0 0 1-4.266.414 19.8 19.8 0 0 1-4.356-.342A2.748 2.748 0 0 1 5-3.85a8.061 8.061 0 0 1-.54-3.438 9.321 9.321 0 0 1 .522-3.69 2.542 2.542 0 0 1 1.836-1.4 22.212 22.212 0 0 1 4.45-.31zm25.776-12.6q-4.572 0-6.39.9a4.333 4.333 0 0 0-2.286 3.294 51.346 51.346 0 0 0-.468 8.478 51.346 51.346 0 0 0 .468 8.478 4.333 4.333 0 0 0 2.286 3.294q1.818.9 6.39.9t6.39-.9a4.333 4.333 0 0 0 2.286-3.294 51.347 51.347 0 0 0 .468-8.478 51.346 51.346 0 0 0-.468-8.478 4.333 4.333 0 0 0-2.286-3.294q-1.818-.9-6.39-.9zm0 2.16a14.967 14.967 0 0 1 4.9.522 2.959 2.959 0 0 1 1.6 2.466 52.816 52.816 0 0 1 .342 7.524 52.816 52.816 0 0 1-.342 7.524 2.959 2.959 0 0 1-1.6 2.466 14.967 14.967 0 0 1-4.9.522 14.787 14.787 0 0 1-4.878-.522 3.008 3.008 0 0 1-1.6-2.466 50.2 50.2 0 0 1-.36-7.524 50.2 50.2 0 0 1 .36-7.524 3.008 3.008 0 0 1 1.6-2.466 14.787 14.787 0 0 1 4.878-.522z" class="cls-1" data-name="Path 1997" transform="rotate(180 854.116 422)"/>
        <path id="Path_3" d="M95.92-50.494h25v-25" class="cls-2" data-name="Path 3" transform="rotate(180 883.036 388.507)"/>
    </g>
</svg>
