<svg xmlns="http://www.w3.org/2000/svg" width="57.864" height="42.782" viewBox="0 0 57.864 42.782">
    <defs>
        <style>
            .cls-1{fill:#fff}.cls-2{fill:none;stroke:#fff;stroke-width:2px}
        </style>
    </defs>
    <g id="Group_4" data-name="Group 4" transform="translate(-1463.297 -732.506)">
        <path id="Path_1998" d="M12.1-25.288q-4.572 0-6.39.9a4.333 4.333 0 0 0-2.29 3.294 51.346 51.346 0 0 0-.468 8.478 51.346 51.346 0 0 0 .468 8.478A4.333 4.333 0 0 0 5.706-.844q1.818.9 6.39.9t6.39-.9a4.333 4.333 0 0 0 2.286-3.294 51.346 51.346 0 0 0 .468-8.478 51.346 51.346 0 0 0-.468-8.478 4.333 4.333 0 0 0-2.286-3.294q-1.818-.9-6.386-.9zm0 2.16a14.967 14.967 0 0 1 4.9.522 2.959 2.959 0 0 1 1.6 2.466 52.816 52.816 0 0 1 .342 7.524 52.816 52.816 0 0 1-.342 7.524A2.959 2.959 0 0 1 17-2.626a14.967 14.967 0 0 1-4.9.522 14.787 14.787 0 0 1-4.878-.522 3.008 3.008 0 0 1-1.6-2.466 50.2 50.2 0 0 1-.36-7.524 50.2 50.2 0 0 1 .36-7.524 3.008 3.008 0 0 1 1.6-2.466 14.787 14.787 0 0 1 4.878-.522zm25.7-2.16q-4.572 0-6.39.9a4.333 4.333 0 0 0-2.286 3.294 51.346 51.346 0 0 0-.468 8.478 51.346 51.346 0 0 0 .468 8.478A4.333 4.333 0 0 0 31.41-.844q1.818.9 6.39.9t6.39-.9a4.333 4.333 0 0 0 2.286-3.294 51.346 51.346 0 0 0 .468-8.478 51.346 51.346 0 0 0-.468-8.478 4.333 4.333 0 0 0-2.286-3.294q-1.818-.9-6.39-.9zm0 2.16a14.967 14.967 0 0 1 4.9.522 2.959 2.959 0 0 1 1.6 2.466 52.816 52.816 0 0 1 .342 7.524 52.816 52.816 0 0 1-.342 7.524 2.959 2.959 0 0 1-1.6 2.466 14.967 14.967 0 0 1-4.9.522 14.787 14.787 0 0 1-4.878-.522 3.008 3.008 0 0 1-1.6-2.466 50.2 50.2 0 0 1-.36-7.524 50.2 50.2 0 0 1 .36-7.524 3.008 3.008 0 0 1 1.6-2.466 14.787 14.787 0 0 1 4.878-.522z" class="cls-1" data-name="Path 1998" transform="rotate(180 755.12 375)"/>
        <path id="Path_4" d="M95.92-50.494h25v-25" class="cls-2" data-name="Path 4" transform="rotate(-90 1212.54 -358.114)"/>
    </g>
</svg>
