<svg xmlns="http://www.w3.org/2000/svg" width="61.236" height="42.562" viewBox="0 0 61.236 42.562">
    <defs>
        <style>
            .cls-1{fill:#fff}.cls-2{fill:none;stroke:#fff;stroke-width:2px}
        </style>
    </defs>
    <g id="Group_2" data-name="Group 2" transform="translate(-553.432 -93.944)">
        <path id="Path_1996" d="M12.276-25.288a17.984 17.984 0 0 0-5.958.756 4.7 4.7 0 0 0-2.754 2.214 9 9 0 0 0-.72 3.942 8.743 8.743 0 0 0 .486 3.258 3.554 3.554 0 0 0 1.44 1.746 8.677 8.677 0 0 0 2.574.936v.144a4.911 4.911 0 0 0-3.276 1.764A6.823 6.823 0 0 0 3.06-6.46a7.47 7.47 0 0 0 .81 3.744A4.894 4.894 0 0 0 6.678-.628a18 18 0 0 0 5.6.684 18 18 0 0 0 5.6-.684 4.894 4.894 0 0 0 2.808-2.088 7.47 7.47 0 0 0 .81-3.744 6.745 6.745 0 0 0-1.026-4.05 4.918 4.918 0 0 0-3.258-1.782v-.144a8.421 8.421 0 0 0 2.556-.936 3.684 3.684 0 0 0 1.44-1.746 8.46 8.46 0 0 0 .5-3.258 9.023 9.023 0 0 0-.72-3.924 4.682 4.682 0 0 0-2.772-2.232 18.009 18.009 0 0 0-5.94-.756zm0 13.9a17.3 17.3 0 0 1 4.284.4 3.188 3.188 0 0 1 2.016 1.368 5.662 5.662 0 0 1 .576 2.844 6.174 6.174 0 0 1-.54 2.916 3.042 3.042 0 0 1-1.98 1.36 17.7 17.7 0 0 1-4.356.4 17.7 17.7 0 0 1-4.356-.4 3.042 3.042 0 0 1-1.98-1.368 6.174 6.174 0 0 1-.54-2.916 5.646 5.646 0 0 1 .576-2.862A3.214 3.214 0 0 1 7.992-11a17.3 17.3 0 0 1 4.284-.392zm0-11.736a19.7 19.7 0 0 1 4.356.36 3.277 3.277 0 0 1 2.106 1.35 5.7 5.7 0 0 1 .63 3.006 6.638 6.638 0 0 1-.576 3.168 2.974 2.974 0 0 1-2.034 1.35 21.375 21.375 0 0 1-4.482.342 21.338 21.338 0 0 1-4.5-.342 2.962 2.962 0 0 1-2.016-1.35 6.638 6.638 0 0 1-.576-3.168 5.7 5.7 0 0 1 .63-3.006 3.277 3.277 0 0 1 2.106-1.35 19.7 19.7 0 0 1 4.356-.364zm25.848-2.16q-4.572 0-6.39.9a4.333 4.333 0 0 0-2.286 3.294 51.346 51.346 0 0 0-.468 8.478 51.346 51.346 0 0 0 .468 8.478 4.333 4.333 0 0 0 2.286 3.29q1.818.9 6.39.9t6.39-.9A4.332 4.332 0 0 0 46.8-4.138a51.346 51.346 0 0 0 .468-8.478 51.346 51.346 0 0 0-.468-8.478 4.333 4.333 0 0 0-2.286-3.294q-1.814-.9-6.39-.9zm0 2.16a14.967 14.967 0 0 1 4.9.522 2.959 2.959 0 0 1 1.6 2.466 52.816 52.816 0 0 1 .342 7.524 52.816 52.816 0 0 1-.342 7.524 2.959 2.959 0 0 1-1.6 2.466 14.967 14.967 0 0 1-4.9.522 14.787 14.787 0 0 1-4.878-.522 3.008 3.008 0 0 1-1.6-2.466 50.2 50.2 0 0 1-.36-7.524 50.2 50.2 0 0 1 .36-7.524 3.008 3.008 0 0 1 1.6-2.466 14.787 14.787 0 0 1 4.878-.526z" class="cls-1" data-name="Path 1996" transform="rotate(180 308.757 47)"/>
        <path id="Path_2" d="M95.92-50.494h25v-25" class="cls-2" data-name="Path 2" transform="rotate(90 244.676 259.263)"/>
    </g>
</svg>
