<svg xmlns="http://www.w3.org/2000/svg" width="57.832" height="42.562" viewBox="0 0 57.832 42.562">
    <defs>
        <style>
            .cls-1{fill:#fff}.cls-2{fill:none;stroke:#fff;stroke-width:2px}
        </style>
    </defs>
    <g id="Group_1" data-name="Group 1" transform="translate(-152.897 -83.944)">
        <path id="Path_1995" d="M5.328-25L15.7-2.392H1.548v2.16h16.74v-1.944L7.92-25zm28.44-.288q-4.572 0-6.39.9a4.333 4.333 0 0 0-2.286 3.294 51.346 51.346 0 0 0-.468 8.478 51.346 51.346 0 0 0 .468 8.478 4.333 4.333 0 0 0 2.286 3.294q1.818.9 6.39.9t6.39-.9a4.333 4.333 0 0 0 2.286-3.294 51.346 51.346 0 0 0 .468-8.478 51.346 51.346 0 0 0-.468-8.478 4.333 4.333 0 0 0-2.286-3.294q-1.818-.9-6.39-.9zm0 2.16a14.967 14.967 0 0 1 4.9.522 2.959 2.959 0 0 1 1.6 2.466 52.816 52.816 0 0 1 .342 7.524 52.816 52.816 0 0 1-.342 7.524 2.959 2.959 0 0 1-1.6 2.466 14.967 14.967 0 0 1-4.9.522 14.787 14.787 0 0 1-4.878-.522 3.008 3.008 0 0 1-1.6-2.466 50.2 50.2 0 0 1-.36-7.524 50.2 50.2 0 0 1 .36-7.524 3.008 3.008 0 0 1 1.6-2.466 14.787 14.787 0 0 1 4.878-.522z" class="cls-1" data-name="Path 1995" transform="rotate(180 97.904 42)"/>
        <path id="Path_1" d="M95.92-50.494h25v-25" class="cls-2" data-name="Path 1" transform="translate(88.809 176)"/>
    </g>
</svg>
