<svg xmlns="http://www.w3.org/2000/svg" width="235.717" height="234.86" viewBox="0 0 235.717 234.86">
    <defs>
        <style>
            .cls-1{opacity:.1}.cls-2,.cls-4{fill:#fff}.cls-3,.cls-9{fill:#c3c3c3}.cls-4{stroke:#c3c3c3}.cls-5{fill:#adadad;opacity:.3}.cls-6{fill:#afafaf}.cls-7{fill:#f8f8f8}.cls-8,.cls-9{stroke:none}
        </style>
    </defs>
    <g id="Group_470" data-name="Group 470" transform="translate(-13206.793 -3496.548)">
        <path id="Path_1926" d="M387.647 464.974l-33.205 12.847-48.535 18.759c-1.831-3.4-4.532-8.051-7.875-13.572-11.493-19.051-30.514-48.681-47.443-74.719-19.08-29.339-35.5-54.113-35.5-54.113l11.887-3.446 97.1-28.16z" class="cls-1" data-name="Path 1926" transform="translate(12991.703 3234.828)"/>
        <path id="Path_1927" d="M389.647 457.974l-33.205 12.847-48.535 18.759c-1.831-3.4-4.532-8.051-7.875-13.572-11.493-19.051-30.514-48.681-47.443-74.719-19.08-29.339-35.5-54.113-35.5-54.113l11.887-3.446 97.1-28.16z" class="cls-2" data-name="Path 1927" transform="translate(12990.365 3239.51)"/>
        <path id="Path_1928" d="M413.67 457.974l-33.205 12.847a249.729 249.729 0 0 1-56.41 5.187c-11.493-19.051-30.514-48.681-47.443-74.719L253 343.73l97.1-28.16z" class="cls-1" data-name="Path 1928" transform="translate(12966.343 3239.51)"/>
        <path id="Path_1929" d="M429.009 421.351s-51.587 30.514-128.6 23.629L239 295.293l29.425-5.055 101.717-17.468 57.714 145.688z" class="cls-3" data-name="Path 1929" transform="translate(12975.707 3268.142)"/>
        <path id="Path_1930" d="M487.349 418.458a244.227 244.227 0 0 1-40.339-1.145c-15.3-1.794-30.673-5.508-43.881-12.308a133.234 133.234 0 0 1-28.687-19.269c-21.388-19.239-34.625-46.761-46.512-95.5l101.718-17.466z" class="cls-1" data-name="Path 1930" transform="translate(12916.216 3268.142)"/>
        <path id="Path_1931" d="M511.24 321.992s-38.041 7.455-76.725 2.863c-15.3-1.8-30.689-5.508-43.881-12.307a133.236 133.236 0 0 1-28.687-19.269c-26.482-23.834-40.455-60.319-54.867-134.036 0 0 63.226 15.257 125.694-18.163 0 0 21.07 131.507 78.466 180.912z" class="cls-4" data-name="Path 1931" transform="translate(12930.164 3356.24)"/>
        <path id="Path_1932" d="M545.4 603.831c-15.3-1.8-30.689-5.508-43.881-12.308a133.235 133.235 0 0 1-28.687-19.269c22.54-1.831 25.78-14.155 25.78-14.155 16.708 26.523 46.788 45.732 46.788 45.732z" class="cls-1" data-name="Path 1932" transform="translate(12819.282 3077.264)"/>
        <path id="Path_1933" d="M405.85 249.446s33.963 3.876 65.752-13.986l2.178 6.995s-30.411 15.164-67.93 15.164z" class="cls-5" data-name="Path 1933" transform="translate(12864.089 3293.102)"/>
        <path id="Path_1934" d="M405.85 339.781s33.765-2.724 71.353-20.891l1.271 2.906s-13.834 17.409-72.624 21.957z" class="cls-3" data-name="Path 1934" transform="translate(12864.089 3237.29)"/>
        <path id="Path_1935" d="M417.94 380.468s33.765-2.724 71.353-20.888l1.271 2.906s-13.83 17.425-72.624 21.977z" class="cls-3" data-name="Path 1935" transform="translate(12856.002 3210.069)"/>
        <path id="Path_1936" d="M429 424.318s33.765-2.724 71.353-20.888l1.271 2.906s-13.85 17.416-72.624 21.977z" class="cls-3" data-name="Path 1936" transform="translate(12848.603 3180.734)"/>
        <path id="Path_1937" d="M442.13 461.9s33.765-2.724 71.352-20.888l1.271 2.906s-13.83 17.419-72.624 21.98z" class="cls-3" data-name="Path 1937" transform="translate(12839.818 3155.594)"/>
        <path id="Path_1938" d="M454.23 502.618s33.765-2.724 71.353-20.888l1.271 2.906s-13.834 17.419-72.624 21.977z" class="cls-1" data-name="Path 1938" transform="translate(12831.725 3128.354)"/>
        <path id="Rectangle_264" d="M0 0h9.98v9.98H0z" class="cls-5" data-name="Rectangle 264" transform="rotate(-18.8 17396.337 -38535.785)"/>
        <path id="Rectangle_265" d="M0 0h9.98v9.98H0z" class="cls-5" data-name="Rectangle 265" transform="rotate(-18.8 17441.477 -38544.99)"/>
        <path id="Rectangle_266" d="M0 0h9.98v9.98H0z" class="cls-5" data-name="Rectangle 266" transform="rotate(-18.8 17527.466 -38557.494)"/>
        <path id="Rectangle_267" d="M0 0h9.98v9.98H0z" class="cls-5" data-name="Rectangle 267" transform="rotate(-18.8 17573.78 -38565.172)"/>
        <path id="Rectangle_268" d="M0 0h9.98v9.98H0z" class="cls-5" data-name="Rectangle 268" transform="rotate(-18.8 17487.77 -38550.928)"/>
        <g id="Group_463" data-name="Group 463" transform="translate(13372.475 3579.912)">
            <path id="Path_1969" d="M723.581 457.477l54.013-20.177a5.131 5.131 0 0 1 6.61 3.011 5.138 5.138 0 0 1-3.018 6.61L727.172 467.1l-11.572-1.157z" class="cls-6" data-name="Path 1969" transform="translate(-715.6 -436.976)"/>
            <g id="Path_1971" class="cls-7" data-name="Path 1971">
                <path d="M704.13 424.63l-8.7-.871-1.069-.108 2.145-2.272 4.588-4.871 3.036 8.122z" class="cls-8" transform="translate(-693.3 -395.079)"/>
                <path d="M700.907 417.436l-4.037 4.286-1.448 1.533.057.006 7.9.792-2.472-6.617m.374-1.856l3.598 9.628-9.5-.952-2.079-.21 2.843-3.01 5.138-5.456z" class="cls-9" transform="translate(-693.3 -395.079)"/>
            </g>
            <path id="Path_1972" d="M720.224 475.42a3.358 3.358 0 0 1 .9.991 1.421 1.421 0 0 1 0 1.531 3.446 3.446 0 0 1-.859.606 2.808 2.808 0 0 0-1.255 2.125l-3.392-.341z" class="cls-6" data-name="Path 1972" transform="translate(-715.262 -451.473)"/>
        </g>
        <path id="Path_1989" d="M647.953 293.831l-4.466-2.178a.54.54 0 0 1-.248-.722l.473-.973a.536.536 0 0 1 .722-.248l3.009 1.466 3.141-6.442a.543.543 0 0 1 .722-.252l.973.477a.536.536 0 0 1 .248.722l-3.853 7.9a.54.54 0 0 1-.721.25z" class="cls-6" data-name="Path 1989" transform="translate(12705.98 3260.674)"/>
        <path id="Path_1990" d="M647.953 293.831l-4.466-2.178a.54.54 0 0 1-.248-.722l.473-.973a.536.536 0 0 1 .722-.248l3.009 1.466 3.141-6.442a.543.543 0 0 1 .722-.252l.973.477a.536.536 0 0 1 .248.722l-3.853 7.9a.54.54 0 0 1-.721.25z" class="cls-6" data-name="Path 1990" transform="translate(12711.277 3274.246)"/>
        <path id="Path_1991" d="M647.953 293.831l-4.466-2.178a.54.54 0 0 1-.248-.722l.473-.973a.536.536 0 0 1 .722-.248l3.009 1.466 3.141-6.442a.543.543 0 0 1 .722-.252l.973.477a.536.536 0 0 1 .248.722l-3.853 7.9a.54.54 0 0 1-.721.25z" class="cls-6" data-name="Path 1991" transform="translate(12715.581 3289.142)"/>
        <path id="Path_1992" d="M647.953 293.831l-4.466-2.178a.54.54 0 0 1-.248-.722l.473-.973a.536.536 0 0 1 .722-.248l3.009 1.466 3.141-6.442a.543.543 0 0 1 .722-.252l.973.477a.536.536 0 0 1 .248.722l-3.853 7.9a.54.54 0 0 1-.721.25z" class="cls-6" data-name="Path 1992" transform="translate(12720.546 3302.052)"/>
    </g>
</svg>
